<?xml version="1.0" encoding="UTF-8"?>
<svg width="571px" height="811px" viewBox="0 0 571 811" version="1.1" xmlns="http://www.w3.org/2000/svg" xmlns:xlink="http://www.w3.org/1999/xlink">
    <!-- Generator: Sketch 60 (88103) - https://sketch.com -->
    <title>service-mesh-primer-1</title>
    <desc>Created with Sketch.</desc>
    <defs>
        <polygon id="path-1" points="11.9906 15.63486 583.285 15.63486 583.285 826.25496 11.9906 826.25496"></polygon>
    </defs>
    <g id="Page-1" stroke="none" stroke-width="1" fill="none" fill-rule="evenodd">
        <g id="service-mesh-primer-1" transform="translate(-12.000000, -16.000000)">
            <mask id="mask-2" fill="white">
                <use xlink:href="#path-1"></use>
            </mask>
            <g id="Clip-2"></g>
            <polygon id="Fill-1" fill="#DE495B" mask="url(#mask-2)" points="11.9906 826.25496 583.285 826.25496 583.285 15.63626 11.9906 15.63626"></polygon>
            <line x1="-443.0416" y1="675.2083" x2="205.740696" y2="496.938229" id="Stroke-3" stroke="#FFFFFE" mask="url(#mask-2)"></line>
            <line x1="-132.1938" y1="767.97988" x2="229.022608" y2="561.890517" id="Stroke-4" stroke="#FFFFFE" mask="url(#mask-2)"></line>
            <line x1="433.0062" y1="155.2666" x2="390.560297" y2="363.892913" id="Stroke-5" stroke="#FFFFFE" mask="url(#mask-2)"></line>
            <path d="M439.4959,186.9712 C506.9409,186.9712 561.6154,132.2967 561.6154,64.8517 C561.6154,-2.5933 506.9409,-57.2678 439.4959,-57.2678 C372.0509,-57.2678 317.3764,-2.5933 317.3764,64.8517 C317.3764,132.2967 372.0509,186.9712 439.4959,186.9712" id="Fill-6" fill="#171734" mask="url(#mask-2)"></path>
            <line x1="222.9899" y1="692.3465" x2="318.868346" y2="578.181046" id="Stroke-7" stroke="#FFFFFE" mask="url(#mask-2)"></line>
            <path d="M214.6455,750.98314 C238.0963,750.98314 257.1064,731.973 257.1064,708.5223 C257.1064,685.0715 238.0963,666.0614 214.6455,666.0614 C191.1947,666.0614 172.1846,685.0715 172.1846,708.5223 C172.1846,731.973 191.1947,750.98314 214.6455,750.98314" id="Fill-8" fill="#171734" mask="url(#mask-2)"></path>
            <line x1="112.353" y1="150.7387" x2="262.896377" y2="301.282077" id="Stroke-9" stroke="#FFFFFE" mask="url(#mask-2)"></line>
            <line x1="-49.76377" y1="457.6284" x2="162.480726" y2="440.923751" id="Stroke-10" stroke="#FFFFFE" mask="url(#mask-2)"></line>
            <line x1="519.7451" y1="798.51152" x2="436.558211" y2="602.535911" id="Stroke-11" stroke="#FFFFFE" mask="url(#mask-2)"></line>
            <path d="M63.95708,185.4796 C101.7172,185.4796 132.3294,154.8687 132.3294,117.1073 C132.3294,79.3472 101.7172,48.7363 63.95708,48.7363 C26.19697,48.7363 -4.41528,79.3472 -4.41528,117.1073 C-4.41528,154.8687 26.19697,185.4796 63.95708,185.4796" id="Fill-12" fill="#171734" mask="url(#mask-2)"></path>
            <path d="M498.3623,939.16271 C556.4561,939.16271 603.5497,892.06913 603.5497,833.975298 C603.5497,775.88147 556.4561,728.7879 498.3623,728.7879 C440.2684,728.7879 393.1748,775.88147 393.1748,833.975298 C393.1748,892.06913 440.2684,939.16271 498.3623,939.16271" id="Fill-13" fill="#171734" mask="url(#mask-2)"></path>
            <path d="M373.559159,63.6717732 L373.559159,56.6124341 L381.819566,56.6124341 L381.819566,63.6717732 L385.238933,63.6717732 L385.238933,46.5136574 L381.819566,46.5136574 L381.819566,53.4259269 L373.559159,53.4259269 L373.559159,46.5136574 L370.139791,46.5136574 L370.139791,63.6717732 L373.559159,63.6717732 Z M393.977313,63.9781681 C395.607334,63.9781681 396.759379,63.3163551 397.531494,62.3604029 L397.531494,63.6717732 L400.656723,63.6717732 L400.656723,51.7959059 L397.531494,51.7959059 L397.531494,53.1072761 C396.747123,52.1390682 395.607334,51.4772551 393.977313,51.4772551 C390.705015,51.4772551 388.229344,54.1612747 388.229344,57.7277116 C388.229344,61.2941485 390.705015,63.9781681 393.977313,63.9781681 Z M394.565591,61.0000094 C392.690455,61.0000094 391.501642,59.5415696 391.501642,57.7277116 C391.501642,55.9138537 392.690455,54.4554138 394.565591,54.4554138 C396.391705,54.4554138 397.629541,55.8525747 397.629541,57.7277116 C397.629541,59.6028486 396.391705,61.0000094 394.565591,61.0000094 Z M407.135134,63.6717732 L407.135134,57.163945 C407.135134,55.3745986 408.274924,54.4799254 409.647573,54.4799254 C411.106013,54.4799254 411.963918,55.4236218 411.963918,57.1394334 L411.963918,63.6717732 L415.162681,63.6717732 L415.162681,56.1099464 C415.162681,53.3523921 413.238521,51.4772551 410.542246,51.4772551 C409.194108,51.4772551 407.894994,51.9307196 407.049344,53.1930667 L407.049344,51.7959059 L403.936371,51.7959059 L403.936371,63.6717732 L407.135134,63.6717732 Z M421.572461,63.6717732 L421.572461,57.163945 C421.572461,55.3745986 422.71225,54.4799254 424.084899,54.4799254 C425.543339,54.4799254 426.401245,55.4236218 426.401245,57.1394334 L426.401245,63.6717732 L429.600008,63.6717732 L429.600008,56.1099464 C429.600008,53.3523921 427.675848,51.4772551 424.979572,51.4772551 C423.631435,51.4772551 422.33232,51.9307196 421.48667,53.1930667 L421.48667,51.7959059 L418.373698,51.7959059 L418.373698,63.6717732 L421.572461,63.6717732 Z M437.823645,63.9781681 C439.453666,63.9781681 440.605711,63.3163551 441.377827,62.3604029 L441.377827,63.6717732 L444.503055,63.6717732 L444.503055,51.7959059 L441.377827,51.7959059 L441.377827,53.1072761 C440.593456,52.1390682 439.453666,51.4772551 437.823645,51.4772551 C434.551348,51.4772551 432.075677,54.1612747 432.075677,57.7277116 C432.075677,61.2941485 434.551348,63.9781681 437.823645,63.9781681 Z M438.411924,61.0000094 C436.536787,61.0000094 435.347974,59.5415696 435.347974,57.7277116 C435.347974,55.9138537 436.536787,54.4554138 438.411924,54.4554138 C440.238037,54.4554138 441.475873,55.8525747 441.475873,57.7277116 C441.475873,59.6028486 440.238037,61.0000094 438.411924,61.0000094 Z M457.592243,63.6717732 L457.592243,57.3968051 L461.195447,57.3968051 C465.264371,57.3968051 467.445903,55.2642964 467.445903,51.967487 C467.445903,48.646166 465.264371,46.5136574 461.170935,46.5136574 L454.172875,46.5136574 L454.172875,63.6717732 L457.592243,63.6717732 Z M461.109656,54.2715769 L457.592243,54.2715769 L457.592243,49.6633972 L461.109656,49.6633972 C462.972537,49.6633972 463.940745,50.4355124 463.940745,51.967487 C463.940745,53.5117174 462.972537,54.2715769 461.109656,54.2715769 Z M472.936498,63.6717732 L472.936498,57.2007123 C472.936498,55.4358776 473.953729,54.5289486 475.43668,54.5289486 C476.086238,54.5289486 476.846097,54.6760182 477.373096,54.9088783 L477.851072,51.7346269 C477.409864,51.5753015 476.870609,51.4772551 476.184284,51.4772551 C474.725844,51.4772551 473.586055,51.9797428 472.838451,53.0950203 L472.838451,51.7959059 L469.737735,51.7959059 L469.737735,63.6717732 L472.936498,63.6717732 Z M481.40035,49.9452805 C482.552394,49.9452805 483.447068,49.0628631 483.447068,47.9108182 C483.447068,46.7587733 482.552394,45.8518443 481.40035,45.8518443 C480.248305,45.8518443 479.365887,46.7587733 479.365887,47.9108182 C479.365887,49.0628631 480.248305,49.9452805 481.40035,49.9452805 Z M483.018115,63.6717732 L483.018115,51.7959059 L479.819352,51.7959059 L479.819352,63.6717732 L483.018115,63.6717732 Z M489.467114,63.6717732 L489.467114,57.163945 C489.467114,55.3745986 490.606903,54.4799254 491.979552,54.4799254 C493.437992,54.4799254 494.295898,55.4236218 494.295898,57.1394334 L494.295898,63.6717732 L497.494661,63.6717732 L497.494661,56.1099464 C497.494661,53.3523921 495.570501,51.4772551 492.874226,51.4772551 C491.526088,51.4772551 490.226973,51.9307196 489.381323,53.1930667 L489.381323,51.7959059 L486.268351,51.7959059 L486.268351,63.6717732 L489.467114,63.6717732 Z M510.368148,63.6717732 L510.368148,60.8161725 L504.375063,60.8161725 L510.233334,54.1367631 L510.233334,51.7959059 L500.183581,51.7959059 L500.183581,54.6392508 L505.968317,54.6392508 L499.975232,61.3676833 L499.975232,63.6717732 L510.368148,63.6717732 Z" id="HannaPrinz" fill="#DE495B" fill-rule="nonzero" mask="url(#mask-2)"></path>
            <path d="M362.835339,93.0856812 L362.835339,89.9481971 L353.435143,89.9481971 L353.435143,86.0018305 L362.30834,86.0018305 L362.30834,82.8643465 L353.435143,82.8643465 L353.435143,79.0650494 L362.737293,79.0650494 L362.737293,75.9275654 L350.015776,75.9275654 L350.015776,93.0856812 L362.835339,93.0856812 Z M372.738021,93.3920761 C376.010319,93.3920761 378.48599,90.7080565 378.48599,87.1416196 C378.48599,83.5751827 376.010319,80.8911631 372.725765,80.8911631 C371.132511,80.8911631 370.017234,81.5162088 369.245119,82.4476494 L369.245119,75.4373335 L366.058611,75.4373335 L366.058611,93.0856812 L369.18384,93.0856812 L369.18384,91.7743109 C369.955955,92.7302631 371.095744,93.3920761 372.738021,93.3920761 Z M372.137487,90.4139174 C370.323629,90.4139174 369.085793,89.0167566 369.085793,87.1416196 C369.085793,85.2664827 370.323629,83.8693218 372.137487,83.8693218 C374.024879,83.8693218 375.201436,85.3277617 375.201436,87.1416196 C375.201436,88.9554776 374.024879,90.4139174 372.137487,90.4139174 Z M386.528241,93.3920761 C388.525936,93.3920761 390.241748,92.8283094 391.589885,91.5904739 L389.714748,89.5315 C388.856842,90.2545921 387.741565,90.6712892 386.712078,90.6712892 C385.204615,90.6712892 384.003547,89.9236855 383.660385,88.207874 L392.080117,88.207874 C392.116885,87.9382464 392.141396,87.4970377 392.141396,87.1293638 C392.12914,83.4281131 389.788283,80.8911631 386.368916,80.8911631 C382.814735,80.8911631 380.363575,83.4403689 380.363575,87.178387 C380.363575,90.9164051 382.888269,93.3920761 386.528241,93.3920761 Z M388.930377,86.0263421 L383.67264,86.0263421 C383.954524,84.5556465 384.836941,83.6487175 386.344404,83.6487175 C387.717053,83.6487175 388.636238,84.5066233 388.930377,86.0263421 Z M397.92613,93.0856812 L397.92613,86.6146203 C397.92613,84.8497856 398.943361,83.9428566 400.426313,83.9428566 C401.07587,83.9428566 401.835729,84.0899262 402.362729,84.3227863 L402.840705,81.1485349 C402.399496,80.9892095 401.860241,80.8911631 401.173916,80.8911631 C399.715476,80.8911631 398.575687,81.3936508 397.828084,82.5089283 L397.828084,81.2098139 L394.727367,81.2098139 L394.727367,93.0856812 L397.92613,93.0856812 Z M408.010198,93.0856812 L408.010198,86.577853 C408.010198,84.7885066 409.149987,83.8938334 410.522637,83.8938334 C411.981076,83.8938334 412.838982,84.8375298 412.838982,86.5533414 L412.838982,93.0856812 L416.037745,93.0856812 L416.037745,85.5238544 C416.037745,82.7663001 414.113585,80.8911631 411.41731,80.8911631 C410.118195,80.8911631 408.855848,81.3078602 408.010198,82.4844168 L408.010198,75.4250777 L404.811435,75.4250777 L404.811435,93.0856812 L408.010198,93.0856812 Z M424.251578,93.3920761 C425.881599,93.3920761 427.033644,92.7302631 427.805759,91.7743109 L427.805759,93.0856812 L430.930987,93.0856812 L430.930987,81.2098139 L427.805759,81.2098139 L427.805759,82.5211841 C427.021388,81.5529762 425.881599,80.8911631 424.251578,80.8911631 C420.97928,80.8911631 418.503609,83.5751827 418.503609,87.1416196 C418.503609,90.7080565 420.97928,93.3920761 424.251578,93.3920761 Z M424.839856,90.4139174 C422.964719,90.4139174 421.775907,88.9554776 421.775907,87.1416196 C421.775907,85.3277617 422.964719,83.8693218 424.839856,83.8693218 C426.66597,83.8693218 427.903806,85.2664827 427.903806,87.1416196 C427.903806,89.0167566 426.66597,90.4139174 424.839856,90.4139174 Z M437.414302,93.0856812 L437.414302,86.6146203 C437.414302,84.8497856 438.431533,83.9428566 439.914484,83.9428566 C440.564041,83.9428566 441.323901,84.0899262 441.8509,84.3227863 L442.328876,81.1485349 C441.887667,80.9892095 441.348412,80.8911631 440.662088,80.8911631 C439.203648,80.8911631 438.063859,81.3936508 437.316255,82.5089283 L437.316255,81.2098139 L434.215539,81.2098139 L434.215539,93.0856812 L437.414302,93.0856812 Z M448.80974,93.3920761 C450.439761,93.3920761 451.591806,92.7302631 452.363921,91.7743109 L452.363921,93.0856812 L455.489149,93.0856812 L455.489149,75.4373335 L452.302642,75.4373335 L452.302642,82.4476494 C451.530527,81.5162088 450.402994,80.8911631 448.80974,80.8911631 C445.537442,80.8911631 443.061771,83.5751827 443.061771,87.1416196 C443.061771,90.7080565 445.537442,93.3920761 448.80974,93.3920761 Z M449.398018,90.4139174 C447.522881,90.4139174 446.334069,88.9554776 446.334069,87.1416196 C446.334069,85.3277617 447.522881,83.8693218 449.398018,83.8693218 C451.224132,83.8693218 452.461968,85.2664827 452.461968,87.1416196 C452.461968,89.0167566 451.224132,90.4139174 449.398018,90.4139174 Z M472.647262,93.0856812 L476.324001,80.8298842 L480.00074,93.0856812 L484.143199,93.0856812 L489.266123,75.9275654 L485.77322,75.9275654 L482.084225,89.0902913 L478.248161,75.9275654 L474.46112,75.9275654 L470.625055,89.0902913 L466.93606,75.9275654 L463.381879,75.9275654 L468.504802,93.0856812 L472.647262,93.0856812 Z M494.825348,93.3920761 C498.526599,93.3920761 501.259641,90.7203123 501.259641,87.1416196 C501.259641,83.5629269 498.526599,80.8911631 494.825348,80.8911631 C491.136353,80.8911631 488.415566,83.5629269 488.415566,87.1416196 C488.415566,90.7203123 491.136353,93.3920761 494.825348,93.3920761 Z M494.825348,90.4139174 C493.023746,90.4139174 491.675608,89.0657797 491.675608,87.1416196 C491.675608,85.2174595 493.023746,83.8693218 494.825348,83.8693218 C496.62695,83.8693218 497.987344,85.2174595 497.987344,87.1416196 C497.987344,89.0657797 496.62695,90.4139174 494.825348,90.4139174 Z M507.027217,93.0856812 L507.027217,75.4373335 L503.828454,75.4373335 L503.828454,93.0856812 L507.027217,93.0856812 Z M514.527764,93.0856812 L514.527764,84.0531588 L518.216759,84.0531588 L518.216759,81.2098139 L514.527764,81.2098139 L514.527764,79.7758856 C514.527764,78.6728639 515.00574,78.1090972 515.924925,78.1090972 C516.672528,78.1090972 517.371109,78.366469 517.959387,78.6851197 L519.23399,76.1971929 C518.327061,75.5966588 517.199528,75.1309386 515.581762,75.1309386 C512.811952,75.1309386 511.329001,76.9570523 511.329001,79.7391182 L511.329001,81.2098139 L509.110702,81.2098139 L509.110702,84.0531588 L511.329001,84.0531588 L511.329001,93.0856812 L514.527764,93.0856812 Z M524.869204,93.0856812 L524.869204,84.0531588 L528.558199,84.0531588 L528.558199,81.2098139 L524.869204,81.2098139 L524.869204,79.7758856 C524.869204,78.6728639 525.34718,78.1090972 526.266365,78.1090972 C527.013968,78.1090972 527.712549,78.366469 528.300827,78.6851197 L529.57543,76.1971929 C528.668501,75.5966588 527.540967,75.1309386 525.923202,75.1309386 C523.153392,75.1309386 521.670441,76.9570523 521.670441,79.7391182 L521.670441,81.2098139 L519.452141,81.2098139 L519.452141,84.0531588 L521.670441,84.0531588 L521.670441,93.0856812 L524.869204,93.0856812 Z" id="EberhardWolff" fill="#DE495B" fill-rule="nonzero" mask="url(#mask-2)"></path>
            <polygon id="Fill-14" fill="#FFFFFF" mask="url(#mask-2)" points="455.901 795.04218 460.509179 795.04218 460.509179 775.69028 455.901 775.69028"></polygon>
            <polygon id="Fill-15" fill="#FFFFFF" mask="url(#mask-2)" points="493.8316 795.04245 493.8316 775.69055 489.2234 775.69055 489.2234 787.52284 480.3774 775.69055 478.3498 775.69055 475.9544 775.69055 475.9544 787.52284 467.1439 775.69055 462.7209 775.69055 462.7209 795.04245 467.3277 795.04245 467.3277 783.24693 476.1383 795.04245 476.9117 795.04245 479.529 795.04245 480.598 795.04245 480.598 783.24693 489.4086 795.04245"></polygon>
            <path d="M505.6271,779.74504 C508.7605,779.74504 511.0087,782.03006 511.0087,785.3473 C511.0087,788.66589 508.7605,790.95092 505.6271,790.95092 C502.4569,790.95092 500.2454,788.66589 500.2454,785.3473 C500.2454,782.03006 502.4937,779.74504 505.6271,779.74504 M505.6271,775.32206 C499.6558,775.32206 495.4166,779.59797 495.4166,785.3473 C495.4166,791.09799 499.6558,795.3739 505.6271,795.3739 C511.5984,795.3739 515.8375,791.09799 515.8375,785.3473 C515.8375,779.59797 511.5984,775.32206 505.6271,775.32206" id="Fill-16" fill="#FFFFFF" mask="url(#mask-2)"></path>
            <path d="M527.3384,779.74504 C530.4718,779.74504 532.72,782.03006 532.72,785.3473 C532.72,785.97507 532.6465,786.56471 532.4994,787.11758 L531.8716,786.26921 L526.859,786.26921 L529.9189,790.36128 C529.1808,790.73032 528.297,790.95092 527.3751,790.95092 C524.2417,790.95092 521.9935,788.66589 521.9935,785.3473 C521.9567,782.06683 524.205,779.74504 527.3384,779.74504 M527.3384,775.32206 C521.3671,775.32206 517.1279,779.59797 517.1279,785.3473 C517.1279,791.09799 521.3671,795.3739 527.3384,795.3739 C529.366,795.3739 531.0982,794.82103 532.5729,793.86235 L533.42,795.00623 L538.8397,795.00623 L535.7799,790.87739 C536.8489,789.32907 537.4753,787.52338 537.4753,785.3473 C537.5488,779.59797 533.3097,775.32206 527.3384,775.32206" id="Fill-17" fill="#E84259" mask="url(#mask-2)"></path>
            <path d="M378.6995,668.7604 C504.6387,668.7604 606.7322,566.6669 606.7322,440.7277 C606.7322,314.7898 504.6387,212.6963 378.6995,212.6963 C252.7603,212.6963 150.6668,314.7898 150.6668,440.7277 C150.6668,566.6669 252.7603,668.7604 378.6995,668.7604" id="Fill-18" fill="#171734" mask="url(#mask-2)"></path>
            <path d="M216.791882,411.219889 C224.962414,411.219889 232.778889,407.43421 232.778889,398.36492 C232.778889,392.128081 228.121686,388.669223 220.713738,387.389173 L219.134101,387.116822 C214.91266,386.381474 211.290391,385.809537 211.290391,383.412848 C211.290391,381.152334 213.823256,379.981225 217.282114,379.981225 C221.748672,379.981225 225.479881,381.560861 228.203391,383.194967 L232.261422,375.732548 C226.48758,372.546041 222.021023,371.701753 216.873588,371.701753 C207.967709,371.701753 201.649164,376.386191 201.512989,383.794139 C201.376813,390.657386 205.62549,394.197949 213.4692,395.423529 L215.375657,395.723115 C220.359681,396.485698 222.919781,397.13934 222.919781,399.427089 C222.919781,401.796543 220.305211,402.967653 216.873588,402.967653 C211.508272,402.967653 207.477477,400.952255 204.563321,398.964092 L200.015058,406.372041 C204.236499,409.558548 210.446103,411.219889 216.791882,411.219889 Z M250.476254,411.219889 C255.405808,411.219889 259.463838,409.613018 262.241819,406.835038 L256.740328,401.714838 C255.051751,403.240004 252.900178,404.057057 250.912015,404.057057 C247.970624,404.057057 245.900756,402.695302 245.192643,399.781146 L263.303988,399.781146 C263.412928,399.209208 263.467398,398.010864 263.467398,397.13934 C263.440163,388.778163 258.020378,383.058791 250.094962,383.058791 C241.978901,383.058791 236.395705,388.887104 236.395705,397.302751 C236.395705,405.636693 242.087841,411.219889 250.476254,411.219889 Z M254.942811,394.388595 L245.219878,394.388595 C245.873521,391.74679 247.480392,390.303329 250.122197,390.303329 C252.600592,390.303329 254.261933,391.719555 254.942811,394.388595 Z M276.316916,410.511777 L276.316916,396.077171 C276.316916,392.754489 278.168903,391.256558 281.192,391.256558 C282.717165,391.256558 284.324037,391.583379 285.467911,391.964671 L286.257729,383.467318 C285.604086,383.276672 284.514682,383.058791 283.261867,383.058791 C279.993655,383.058791 277.51526,384.284371 275.962859,386.871706 L275.962859,383.794139 L267.792328,383.794139 L267.792328,410.511777 L276.316916,410.511777 Z M308.83018,410.511777 L319.043344,383.794139 L310.028524,383.794139 L304.009566,401.224606 L298.045078,383.794139 L288.757908,383.794139 L299.107247,410.511777 L308.83018,410.511777 Z M326.124466,380.634867 C328.984152,380.634867 331.217431,378.428824 331.217431,375.569138 C331.217431,372.682217 328.984152,370.448938 326.124466,370.448938 C323.237545,370.448938 321.031501,372.682217 321.031501,375.569138 C321.031501,378.428824 323.237545,380.634867 326.124466,380.634867 Z M330.427613,410.511777 L330.427613,383.794139 L321.903025,383.794139 L321.903025,410.511777 L330.427613,410.511777 Z M348.980163,411.219889 C353.936952,411.219889 357.858807,409.041081 360.418907,405.418812 L353.773542,400.679904 C352.439022,402.368481 350.750445,403.267239 348.735047,403.267239 C345.766421,403.267239 343.288027,401.006725 343.288027,397.13934 C343.288027,393.299191 345.820891,391.011442 348.789518,391.011442 C350.859386,391.011442 352.384551,391.85573 353.719072,393.571542 L360.391672,388.914339 C357.831572,385.264835 353.936952,383.058791 348.980163,383.058791 C340.455576,383.058791 334.572793,388.968809 334.572793,397.13934 C334.572793,405.309872 340.455576,411.219889 348.980163,411.219889 Z M375.447234,411.219889 C380.376787,411.219889 384.434818,409.613018 387.212799,406.835038 L381.711308,401.714838 C380.022731,403.240004 377.871158,404.057057 375.882995,404.057057 C372.941604,404.057057 370.871736,402.695302 370.163623,399.781146 L388.274968,399.781146 C388.383908,399.209208 388.438378,398.010864 388.438378,397.13934 C388.411143,388.778163 382.991357,383.058791 375.065942,383.058791 C366.949881,383.058791 361.366684,388.887104 361.366684,397.302751 C361.366684,405.636693 367.058821,411.219889 375.447234,411.219889 Z M379.913791,394.388595 L370.190858,394.388595 C370.844501,391.74679 372.451372,390.303329 375.093177,390.303329 C377.571572,390.303329 379.232913,391.719555 379.913791,394.388595 Z M414.747482,410.511777 L414.747482,384.502252 L422.373312,406.916743 L432.041774,406.916743 L439.667603,384.420547 L439.667603,410.511777 L448.764128,410.511777 L448.764128,372.382631 L435.854688,372.382631 L427.22116,396.594638 L418.533162,372.382631 L405.650957,372.382631 L405.650957,410.511777 L414.747482,410.511777 Z M467.948527,411.219889 C472.878081,411.219889 476.936112,409.613018 479.714092,406.835038 L474.212601,401.714838 C472.524025,403.240004 470.372451,404.057057 468.384289,404.057057 C465.442898,404.057057 463.37303,402.695302 462.664917,399.781146 L480.776261,399.781146 C480.885202,399.209208 480.939672,398.010864 480.939672,397.13934 C480.912437,388.778163 475.492651,383.058791 467.567236,383.058791 C459.451175,383.058791 453.867978,388.887104 453.867978,397.302751 C453.867978,405.636693 459.560115,411.219889 467.948527,411.219889 Z M472.415084,394.388595 L462.692152,394.388595 C463.345794,391.74679 464.952666,390.303329 467.594471,390.303329 C470.072865,390.303329 471.734207,391.719555 472.415084,394.388595 Z M495.483213,411.192654 C503.272453,411.192654 507.84795,407.679326 507.84795,401.823778 C507.84795,397.329986 504.824854,394.579241 499.105482,393.707717 L497.144554,393.408131 C494.529984,392.999605 492.841408,392.727254 492.841408,391.583379 C492.841408,390.602915 493.712931,389.949273 495.94621,389.949273 C498.66972,389.976508 502.101343,390.902502 504.743148,392.019141 L507.112603,385.373775 C502.727751,383.685199 499.94977,383.086027 495.619388,383.086027 C488.347616,383.086027 484.071704,386.327004 484.071704,392.019141 C484.071704,396.812519 487.067566,399.481559 493.49505,400.434788 L495.047451,400.652669 C498.070548,401.115666 499.268892,401.524192 499.268892,402.559126 C499.268892,403.703001 498.179488,404.302173 495.537683,404.302173 C491.833709,404.302173 488.783377,403.376179 486.114337,401.796543 L483.145711,408.387439 C486.196042,410.375601 490.907715,411.192654 495.483213,411.192654 Z M520.724703,410.511777 L520.724703,396.131642 C520.724703,392.672783 522.685631,391.065912 525.055085,391.065912 C527.69689,391.065912 529.276526,392.836194 529.276526,395.995466 L529.276526,410.511777 L537.801114,410.511777 L537.801114,392.972369 C537.801114,386.790001 533.661378,383.058791 528.323297,383.058791 C525.000615,383.058791 522.41328,384.175431 520.724703,386.599355 L520.724703,371.265991 L512.200116,371.265991 L512.200116,410.511777 L520.724703,410.511777 Z" id="ServiceMesh" fill="#FFFFFE" fill-rule="nonzero" mask="url(#mask-2)"></path>
            <path d="M220.215878,462.231861 L220.215878,448.272508 L225.534894,448.272508 L225.534894,445.073745 L211.477494,445.073745 L211.477494,448.272508 L216.79651,448.272508 L216.79651,462.231861 L220.215878,462.231861 Z M230.7338,462.231861 L230.7338,455.724032 C230.7338,453.934686 231.873589,453.040013 233.246239,453.040013 C234.704678,453.040013 235.562584,453.983709 235.562584,455.699521 L235.562584,462.231861 L238.761347,462.231861 L238.761347,454.670034 C238.761347,451.91248 236.837187,450.037343 234.140912,450.037343 C232.841797,450.037343 231.57945,450.45404 230.7338,451.630596 L230.7338,444.571257 L227.535037,444.571257 L227.535037,462.231861 L230.7338,462.231861 Z M247.391877,462.538256 C249.389572,462.538256 251.105384,461.974489 252.453521,460.736653 L250.578384,458.67768 C249.720479,459.400772 248.605201,459.817469 247.575714,459.817469 C246.068251,459.817469 244.867183,459.069865 244.524021,457.354053 L252.943753,457.354053 C252.980521,457.084426 253.005032,456.643217 253.005032,456.275543 C252.992776,452.574293 250.651919,450.037343 247.232552,450.037343 C243.678371,450.037343 241.227211,452.586548 241.227211,456.324567 C241.227211,460.062585 243.751905,462.538256 247.391877,462.538256 Z M249.794013,455.172522 L244.536276,455.172522 C244.81816,453.701826 245.700577,452.794897 247.20804,452.794897 C248.580689,452.794897 249.499874,453.652803 249.794013,455.172522 Z M265.346617,462.231861 L265.358872,450.77269 L274.060488,462.231861 L277.271507,462.231861 L277.271507,445.073745 L273.839884,445.073745 L273.839884,456.532915 L265.126012,445.073745 L261.927249,445.073745 L261.927249,462.231861 L265.346617,462.231861 Z M286.43884,462.538256 C288.436535,462.538256 290.152347,461.974489 291.500484,460.736653 L289.625347,458.67768 C288.767441,459.400772 287.652164,459.817469 286.622677,459.817469 C285.115214,459.817469 283.914146,459.069865 283.570984,457.354053 L291.990716,457.354053 C292.027483,457.084426 292.051995,456.643217 292.051995,456.275543 C292.039739,452.574293 289.698882,450.037343 286.279515,450.037343 C282.725334,450.037343 280.274174,452.586548 280.274174,456.324567 C280.274174,460.062585 282.798868,462.538256 286.43884,462.538256 Z M288.840976,455.172522 L283.583239,455.172522 C283.865123,453.701826 284.74754,452.794897 286.255003,452.794897 C287.627652,452.794897 288.546837,453.652803 288.840976,455.172522 Z M300.327107,462.231861 L302.937592,454.204314 L305.572588,462.231861 L309.224816,462.231861 L313.244717,450.355993 L309.898885,450.355993 L307.349679,458.689935 L304.653403,450.355993 L301.283059,450.355993 L298.623551,458.653168 L296.086601,450.355993 L292.67949,450.355993 L296.699391,462.231861 L300.327107,462.231861 Z M324.863208,462.231861 L324.863208,445.073745 L321.443841,445.073745 L321.443841,462.231861 L324.863208,462.231861 Z M331.665174,462.231861 L331.665174,455.724032 C331.665174,453.934686 332.804964,453.040013 334.177613,453.040013 C335.636053,453.040013 336.493958,453.983709 336.493958,455.699521 L336.493958,462.231861 L339.692721,462.231861 L339.692721,454.670034 C339.692721,451.91248 337.768561,450.037343 335.072286,450.037343 C333.724148,450.037343 332.425034,450.490807 331.579384,451.753154 L331.579384,450.355993 L328.466411,450.355993 L328.466411,462.231861 L331.665174,462.231861 Z M346.749607,462.231861 L346.749607,453.199338 L350.438602,453.199338 L350.438602,450.355993 L346.749607,450.355993 L346.749607,448.922065 C346.749607,447.819043 347.227583,447.255277 348.146768,447.255277 C348.894372,447.255277 349.592952,447.512648 350.18123,447.831299 L351.455833,445.343372 C350.548904,444.742838 349.421371,444.277118 347.803606,444.277118 C345.033795,444.277118 343.550844,446.103232 343.550844,448.885298 L343.550844,450.355993 L341.332545,450.355993 L341.332545,453.199338 L343.550844,453.199338 L343.550844,462.231861 L346.749607,462.231861 Z M355.453672,462.231861 L355.453672,455.7608 C355.453672,453.995965 356.470904,453.089036 357.953855,453.089036 C358.603412,453.089036 359.363272,453.236106 359.890271,453.468966 L360.368247,450.294714 C359.927038,450.135389 359.387783,450.037343 358.701459,450.037343 C357.243019,450.037343 356.10323,450.53983 355.355626,451.655108 L355.355626,450.355993 L352.254909,450.355993 L352.254909,462.231861 L355.453672,462.231861 Z M366.849111,462.538256 C368.479132,462.538256 369.631177,461.876443 370.403292,460.92049 L370.403292,462.231861 L373.52852,462.231861 L373.52852,450.355993 L370.403292,450.355993 L370.403292,451.667364 C369.618921,450.699156 368.479132,450.037343 366.849111,450.037343 C363.576813,450.037343 361.101142,452.721362 361.101142,456.287799 C361.101142,459.854236 363.576813,462.538256 366.849111,462.538256 Z M367.437389,459.560097 C365.562252,459.560097 364.37344,458.101657 364.37344,456.287799 C364.37344,454.473941 365.562252,453.015501 367.437389,453.015501 C369.263503,453.015501 370.501338,454.412662 370.501338,456.287799 C370.501338,458.162936 369.263503,459.560097 367.437389,459.560097 Z M381.276633,462.538256 C384.720512,462.538256 386.730462,460.957258 386.730462,458.506098 C386.730462,456.496148 385.296534,455.344103 382.722817,454.951917 L381.668818,454.792592 C380.590308,454.633267 379.732402,454.461685 379.732402,453.775361 C379.732402,453.125803 380.345192,452.696851 381.558516,452.696851 C382.894398,452.709106 384.401861,453.199338 385.345557,453.665059 L386.424067,451.177132 C384.84307,450.405017 383.360118,450.049598 381.46047,450.049598 C378.335241,450.049598 376.447849,451.495782 376.447849,453.934686 C376.447849,455.956893 377.808242,457.157961 380.553541,457.53789 L381.521749,457.672704 C382.894398,457.868797 383.494932,458.187448 383.494932,458.76347 C383.494932,459.462051 382.784096,459.878748 381.301144,459.878748 C379.511798,459.878748 378.273962,459.388516 377.256731,458.714447 L375.994384,461.141095 C377.538615,462.231861 379.658868,462.538256 381.276633,462.538256 Z M394.794775,462.538256 C396.486075,462.538256 397.687143,461.999001 398.728886,461.288164 L397.552329,458.787982 C396.902772,459.180167 396.081634,459.560097 395.321774,459.560097 C394.329055,459.560097 393.544684,459.020842 393.544684,457.53789 L393.544684,453.199338 L397.846468,453.199338 L397.846468,450.355993 L393.544684,450.355993 L393.544684,446.826324 L390.345921,446.826324 L390.345921,450.355993 L388.054086,450.355993 L388.054086,453.199338 L390.345921,453.199338 L390.345921,457.795262 C390.345921,460.871467 391.853384,462.538256 394.794775,462.538256 Z M403.839551,462.231861 L403.839551,455.7608 C403.839551,453.995965 404.856782,453.089036 406.339734,453.089036 C406.989291,453.089036 407.74915,453.236106 408.27615,453.468966 L408.754126,450.294714 C408.312917,450.135389 407.773662,450.037343 407.087337,450.037343 C405.628898,450.037343 404.489108,450.53983 403.741505,451.655108 L403.741505,450.355993 L400.640788,450.355993 L400.640788,462.231861 L403.839551,462.231861 Z M416.217904,462.538256 C419.183807,462.538256 421.83106,460.92049 421.83106,457.170217 L421.83106,450.355993 L418.644552,450.355993 L418.644552,456.888333 C418.644552,458.787982 417.590554,459.560097 416.217904,459.560097 C414.832999,459.560097 413.791257,458.787982 413.791257,456.888333 L413.791257,450.355993 L410.592494,450.355993 L410.592494,457.170217 C410.592494,460.92049 413.239746,462.538256 416.217904,462.538256 Z M430.557185,462.538256 C432.542624,462.538256 434.209412,461.741629 435.32469,460.307701 L433.045111,458.359029 C432.371043,459.094377 431.488625,459.560097 430.459138,459.560097 C428.804606,459.560097 427.493235,458.273238 427.493235,456.287799 C427.493235,454.314616 428.816861,453.015501 430.471394,453.015501 C431.513137,453.015501 432.285252,453.432198 433.008344,454.204314 L435.312434,452.280154 C434.221668,450.846225 432.542624,450.037343 430.557185,450.037343 C426.770143,450.037343 424.233193,452.696851 424.233193,456.287799 C424.233193,459.891003 426.770143,462.538256 430.557185,462.538256 Z M443.619411,462.538256 C445.310711,462.538256 446.511779,461.999001 447.553522,461.288164 L446.376965,458.787982 C445.727408,459.180167 444.90627,459.560097 444.14641,459.560097 C443.153691,459.560097 442.36932,459.020842 442.36932,457.53789 L442.36932,453.199338 L446.671104,453.199338 L446.671104,450.355993 L442.36932,450.355993 L442.36932,446.826324 L439.170557,446.826324 L439.170557,450.355993 L436.878723,450.355993 L436.878723,453.199338 L439.170557,453.199338 L439.170557,457.795262 C439.170557,460.871467 440.67802,462.538256 443.619411,462.538256 Z M454.674138,462.538256 C457.640041,462.538256 460.287293,460.92049 460.287293,457.170217 L460.287293,450.355993 L457.100786,450.355993 L457.100786,456.888333 C457.100786,458.787982 456.046787,459.560097 454.674138,459.560097 C453.289233,459.560097 452.24749,458.787982 452.24749,456.888333 L452.24749,450.355993 L449.048727,450.355993 L449.048727,457.170217 C449.048727,460.92049 451.695979,462.538256 454.674138,462.538256 Z M466.655403,462.231861 L466.655403,455.7608 C466.655403,453.995965 467.672634,453.089036 469.155585,453.089036 C469.805143,453.089036 470.565002,453.236106 471.092001,453.468966 L471.569977,450.294714 C471.128769,450.135389 470.589514,450.037343 469.903189,450.037343 C468.444749,450.037343 467.30496,450.53983 466.557356,451.655108 L466.557356,450.355993 L463.45664,450.355993 L463.45664,462.231861 L466.655403,462.231861 Z M478.479794,462.538256 C480.477489,462.538256 482.193301,461.974489 483.541438,460.736653 L481.666301,458.67768 C480.808396,459.400772 479.693118,459.817469 478.663631,459.817469 C477.156168,459.817469 475.9551,459.069865 475.611938,457.354053 L484.03167,457.354053 C484.068438,457.084426 484.092949,456.643217 484.092949,456.275543 C484.080693,452.574293 481.739836,450.037343 478.320469,450.037343 C474.766288,450.037343 472.315128,452.586548 472.315128,456.324567 C472.315128,460.062585 474.839823,462.538256 478.479794,462.538256 Z M480.88193,455.172522 L475.624194,455.172522 C475.906077,453.701826 476.788494,452.794897 478.295957,452.794897 C479.668607,452.794897 480.587791,453.652803 480.88193,455.172522 Z M496.900254,462.231861 L496.900254,453.199338 L500.589249,453.199338 L500.589249,450.355993 L496.900254,450.355993 L496.900254,448.922065 C496.900254,447.819043 497.37823,447.255277 498.297415,447.255277 C499.045018,447.255277 499.743599,447.512648 500.331877,447.831299 L501.60648,445.343372 C500.699551,444.742838 499.572018,444.277118 497.954252,444.277118 C495.184442,444.277118 493.701491,446.103232 493.701491,448.885298 L493.701491,450.355993 L491.483192,450.355993 L491.483192,453.199338 L493.701491,453.199338 L493.701491,462.231861 L496.900254,462.231861 Z M507.972139,462.538256 C511.67339,462.538256 514.406433,459.866492 514.406433,456.287799 C514.406433,452.709106 511.67339,450.037343 507.972139,450.037343 C504.283144,450.037343 501.562358,452.709106 501.562358,456.287799 C501.562358,459.866492 504.283144,462.538256 507.972139,462.538256 Z M507.972139,459.560097 C506.170537,459.560097 504.8224,458.211959 504.8224,456.287799 C504.8224,454.363639 506.170537,453.015501 507.972139,453.015501 C509.773742,453.015501 511.134135,454.363639 511.134135,456.287799 C511.134135,458.211959 509.773742,459.560097 507.972139,459.560097 Z M520.144595,462.231861 L520.144595,455.7608 C520.144595,453.995965 521.161826,453.089036 522.644777,453.089036 C523.294334,453.089036 524.054194,453.236106 524.581193,453.468966 L525.059169,450.294714 C524.61796,450.135389 524.078705,450.037343 523.392381,450.037343 C521.933941,450.037343 520.794152,450.53983 520.046548,451.655108 L520.046548,450.355993 L516.945832,450.355993 L516.945832,462.231861 L520.144595,462.231861 Z" id="TheNewInfrastructurefor" fill="#DE495B" fill-rule="nonzero" mask="url(#mask-2)"></path>
            <path d="M294.351181,491.645769 L294.351181,478.789438 L298.591687,489.991236 L302.207147,489.991236 L306.447653,478.691391 L306.447653,491.645769 L309.86702,491.645769 L309.86702,474.487653 L304.854399,474.487653 L300.405545,486.069381 L295.944435,474.487653 L290.931814,474.487653 L290.931814,491.645769 L294.351181,491.645769 Z M315.07833,477.919276 C316.230375,477.919276 317.125048,477.036859 317.125048,475.884814 C317.125048,474.732769 316.230375,473.82584 315.07833,473.82584 C313.926285,473.82584 313.043868,474.732769 313.043868,475.884814 C313.043868,477.036859 313.926285,477.919276 315.07833,477.919276 Z M316.696095,491.645769 L316.696095,479.769901 L313.497332,479.769901 L313.497332,491.645769 L316.696095,491.645769 Z M325.449333,491.952164 C327.434772,491.952164 329.101561,491.155537 330.216838,489.721609 L327.93726,487.772937 C327.263191,488.508285 326.380774,488.974005 325.351287,488.974005 C323.696754,488.974005 322.385384,487.687146 322.385384,485.701707 C322.385384,483.728524 323.70901,482.429409 325.363543,482.429409 C326.405285,482.429409 327.177401,482.846106 327.900493,483.618222 L330.204582,481.694062 C329.113817,480.260133 327.434772,479.451251 325.449333,479.451251 C321.662292,479.451251 319.125342,482.110759 319.125342,485.701707 C319.125342,489.304911 321.662292,491.952164 325.449333,491.952164 Z M335.42815,491.645769 L335.42815,485.174708 C335.42815,483.409873 336.445381,482.502944 337.928333,482.502944 C338.57789,482.502944 339.337749,482.650014 339.864748,482.882874 L340.342725,479.708622 C339.901516,479.549297 339.362261,479.451251 338.675936,479.451251 C337.217496,479.451251 336.077707,479.953738 335.330104,481.069016 L335.330104,479.769901 L332.229387,479.769901 L332.229387,491.645769 L335.42815,491.645769 Z M347.404662,491.952164 C351.105913,491.952164 353.838956,489.2804 353.838956,485.701707 C353.838956,482.123014 351.105913,479.451251 347.404662,479.451251 C343.715667,479.451251 340.99488,482.123014 340.99488,485.701707 C340.99488,489.2804 343.715667,491.952164 347.404662,491.952164 Z M347.404662,488.974005 C345.60306,488.974005 344.254922,487.625867 344.254922,485.701707 C344.254922,483.777547 345.60306,482.429409 347.404662,482.429409 C349.206264,482.429409 350.566658,483.777547 350.566658,485.701707 C350.566658,487.625867 349.206264,488.974005 347.404662,488.974005 Z M360.545474,491.952164 C363.989353,491.952164 365.999304,490.371166 365.999304,487.920006 C365.999304,485.910056 364.565376,484.758011 361.991658,484.365825 L360.93766,484.2065 C359.859149,484.047175 359.001244,483.875593 359.001244,483.189269 C359.001244,482.539711 359.614034,482.110759 360.827357,482.110759 C362.163239,482.123014 363.670702,482.613246 364.614399,483.078967 L365.692909,480.59104 C364.111911,479.818925 362.62896,479.463506 360.729311,479.463506 C357.604083,479.463506 355.71669,480.90969 355.71669,483.348594 C355.71669,485.370801 357.077084,486.571869 359.822382,486.951798 L360.79059,487.086612 C362.163239,487.282705 362.763773,487.601356 362.763773,488.177378 C362.763773,488.875959 362.052937,489.292656 360.569986,489.292656 C358.780639,489.292656 357.542804,488.802424 356.525573,488.128355 L355.263226,490.555003 C356.807456,491.645769 358.927709,491.952164 360.545474,491.952164 Z M373.845612,491.952164 C375.843307,491.952164 377.559118,491.388397 378.907256,490.150561 L377.032119,488.091588 C376.174213,488.81468 375.058936,489.231377 374.029449,489.231377 C372.521986,489.231377 371.320918,488.483773 370.977755,486.767961 L379.397488,486.767961 C379.434255,486.498334 379.458767,486.057125 379.458767,485.689451 C379.446511,481.988201 377.105654,479.451251 373.686287,479.451251 C370.132105,479.451251 367.680946,482.000456 367.680946,485.738475 C367.680946,489.476493 370.20564,491.952164 373.845612,491.952164 Z M376.247748,484.58643 L370.990011,484.58643 C371.271894,483.115734 372.154312,482.208805 373.661775,482.208805 C375.034424,482.208805 375.953609,483.066711 376.247748,484.58643 Z M385.172566,491.645769 L385.172566,485.174708 C385.172566,483.409873 386.189797,482.502944 387.672749,482.502944 C388.322306,482.502944 389.082165,482.650014 389.609165,482.882874 L390.087141,479.708622 C389.645932,479.549297 389.106677,479.451251 388.420352,479.451251 C386.961912,479.451251 385.822123,479.953738 385.07452,481.069016 L385.07452,479.769901 L381.973803,479.769901 L381.973803,491.645769 L385.172566,491.645769 Z M400.065958,491.645769 L404.710905,479.769901 L401.340561,479.769901 L398.239844,488.275424 L395.163639,479.769901 L391.682992,479.769901 L396.376963,491.645769 L400.065958,491.645769 Z M408.071591,477.919276 C409.223636,477.919276 410.118309,477.036859 410.118309,475.884814 C410.118309,474.732769 409.223636,473.82584 408.071591,473.82584 C406.919546,473.82584 406.037129,474.732769 406.037129,475.884814 C406.037129,477.036859 406.919546,477.919276 408.071591,477.919276 Z M409.689356,491.645769 L409.689356,479.769901 L406.490593,479.769901 L406.490593,491.645769 L409.689356,491.645769 Z M418.442594,491.952164 C420.428033,491.952164 422.094822,491.155537 423.210099,489.721609 L420.930521,487.772937 C420.256452,488.508285 419.374035,488.974005 418.344548,488.974005 C416.690015,488.974005 415.378645,487.687146 415.378645,485.701707 C415.378645,483.728524 416.702271,482.429409 418.356804,482.429409 C419.398546,482.429409 420.170661,482.846106 420.893754,483.618222 L423.197843,481.694062 C422.107077,480.260133 420.428033,479.451251 418.442594,479.451251 C414.655553,479.451251 412.118603,482.110759 412.118603,485.701707 C412.118603,489.304911 414.655553,491.952164 418.442594,491.952164 Z M430.25978,491.952164 C432.257475,491.952164 433.973287,491.388397 435.321425,490.150561 L433.446288,488.091588 C432.588382,488.81468 431.473104,489.231377 430.443617,489.231377 C428.936154,489.231377 427.735086,488.483773 427.391924,486.767961 L435.811657,486.767961 C435.848424,486.498334 435.872935,486.057125 435.872935,485.689451 C435.86068,481.988201 433.519822,479.451251 430.100455,479.451251 C426.546274,479.451251 424.095115,482.000456 424.095115,485.738475 C424.095115,489.476493 426.619809,491.952164 430.25978,491.952164 Z M432.661917,484.58643 L427.40418,484.58643 C427.686063,483.115734 428.56848,482.208805 430.075944,482.208805 C431.448593,482.208805 432.367778,483.066711 432.661917,484.58643 Z M442.652989,491.952164 C446.096868,491.952164 448.106819,490.371166 448.106819,487.920006 C448.106819,485.910056 446.67289,484.758011 444.099173,484.365825 L443.045175,484.2065 C441.966664,484.047175 441.108759,483.875593 441.108759,483.189269 C441.108759,482.539711 441.721548,482.110759 442.934872,482.110759 C444.270754,482.123014 445.778217,482.613246 446.721914,483.078967 L447.800424,480.59104 C446.219426,479.818925 444.736475,479.463506 442.836826,479.463506 C439.711598,479.463506 437.824205,480.90969 437.824205,483.348594 C437.824205,485.370801 439.184598,486.571869 441.929897,486.951798 L442.898105,487.086612 C444.270754,487.282705 444.871288,487.601356 444.871288,488.177378 C444.871288,488.875959 444.160452,489.292656 442.677501,489.292656 C440.888154,489.292656 439.650319,488.802424 438.633088,488.128355 L437.370741,490.555003 C438.914971,491.645769 441.035224,491.952164 442.652989,491.952164 Z" id="Microservices" fill="#DE495B" fill-rule="nonzero" mask="url(#mask-2)"></path>
            <path d="M-56.52597,548.3282 C1.567864,548.3282 48.66144,501.2347 48.66144,443.1408 C48.66144,385.047 1.567864,337.9534 -56.52597,337.9534 C-114.6198,337.9534 -161.7134,385.047 -161.7134,443.1408 C-161.7134,501.2347 -114.6198,548.3282 -56.52597,548.3282" id="Fill-19" fill="#171734" mask="url(#mask-2)"></path>
        </g>
    </g>
</svg>