<?xml version="1.0" standalone="no"?>
<!DOCTYPE svg PUBLIC "-//W3C//DTD SVG 20010904//EN"
 "http://www.w3.org/TR/2001/REC-SVG-20010904/DTD/svg10.dtd">
<svg version="1.0" xmlns="http://www.w3.org/2000/svg"
 width="700.000000pt" height="700.000000pt" viewBox="0 0 700.000000 700.000000"
 preserveAspectRatio="xMidYMid meet">
<metadata>
Created by potrace 1.11, written by Peter Selinger 2001-2013
</metadata>
<g transform="translate(0.000000,700.000000) scale(0.100000,-0.100000)"
fill="#000000" stroke="none">
<path d="M2510 5768 c-42 -11 -143 -49 -150 -57 -3 -3 -17 -12 -32 -20 -35
-18 -118 -95 -151 -141 -164 -224 -141 -543 53 -739 102 -103 251 -167 396
-170 l41 -1 113 -242 c62 -134 135 -290 163 -348 98 -210 92 -192 71 -207 -11
-8 -43 -37 -73 -66 -258 -250 -360 -613 -271 -963 84 -329 352 -609 670 -702
72 -21 88 -25 155 -38 63 -12 251 -6 330 11 192 41 331 109 476 236 l67 58
103 -62 c57 -35 115 -70 129 -79 31 -19 352 -211 502 -300 l113 -66 1 -84 c1
-103 17 -174 56 -253 70 -142 183 -242 334 -296 76 -28 234 -34 314 -13 439
115 583 659 256 967 -101 96 -214 144 -358 154 -118 9 -241 -24 -349 -93 -26
-17 -28 -16 -94 22 -92 54 -116 68 -257 154 -68 41 -132 80 -143 86 -30 17
-379 226 -384 230 -2 2 6 46 19 96 108 438 -110 911 -515 1115 -56 29 -123 57
-135 58 -3 0 -9 3 -15 7 -29 18 -192 42 -290 42 -100 1 -209 -9 -228 -21 -4
-2 -11 7 -16 20 -5 13 -39 85 -75 161 -36 76 -66 139 -66 141 0 2 -22 50 -49
107 -121 255 -150 318 -156 337 -4 14 3 32 24 58 33 42 84 141 96 188 14 52
15 58 19 134 6 118 -34 254 -102 351 -72 102 -226 204 -345 228 -61 12 -200
12 -247 0z m1230 -2283 c52 -12 150 -68 194 -110 172 -168 177 -430 10 -606
-79 -82 -201 -133 -310 -131 -192 6 -352 129 -407 313 -71 234 94 498 333 536
19 3 36 6 38 8 4 4 115 -4 142 -10z"/>
<path d="M5648 5195 c-247 -60 -423 -276 -433 -531 -11 -292 186 -534 480
-589 227 -42 493 94 596 305 47 96 59 145 63 245 5 118 -28 228 -97 333 -45
67 -58 80 -132 138 -127 99 -314 138 -477 99z"/>
<path d="M4842 4042 c-116 -86 -211 -160 -212 -163 0 -5 99 -142 133 -184 4
-5 13 -18 20 -28 12 -17 30 -5 224 140 117 87 212 161 213 166 0 5 -130 185
-159 219 -4 4 -102 -63 -219 -150z"/>
<path d="M1085 3625 c-166 -36 -307 -145 -385 -298 -22 -45 -43 -95 -46 -112
-3 -16 -8 -46 -12 -65 -15 -69 -4 -182 25 -270 42 -130 157 -259 285 -323 323
-162 714 15 809 365 30 112 15 274 -35 385 -66 143 -208 265 -360 308 -74 22
-204 26 -281 10z"/>
<path d="M1993 3070 c1 -88 5 -141 12 -143 5 -2 102 -3 214 -3 l204 1 1 143 1
142 -216 0 -216 0 0 -140z"/>
</g>
</svg>
